# xmcd
#
# Track frame offsets:
#	150
#	18831
#	44367
#	62847
#	84576
#	103192
#	119888
#	141977
#	156044
#	178868
#	195252
#
# Disc length: 2825 seconds
# Revision: 0
# Processed by: cddbd v1.5.2PL0 Copyright (c) Steve Scherf et al.
# Submitted via: dBpowerAMP V12.0
#
DISCID=980b070b
DTITLE=Unknown artistSharpees - Mississippi Thrill
DYEAR=2014
DGENRE=Blues
TTITLE0=Track 1 Tower of Love
TTITLE1=Track 2 Strangers
TTITLE2=Track 3 Play Johnny Play
TTITLE3=Track 4 Mississippi Thrill
TTITLE4=Track 5 Kick Start Me
TTITLE5=Track 6 Song for Allie
TTITLE6=Track 7 Jackie D
TTITLE7=Track 8 Crazy Woman Blues
TTITLE8=Track 9 The Clock
TTITLE9=Track 10 Trucking the E15
TTITLE10=Track 11 Travelling Blues Man
EXTD=
EXTT0=
EXTT1=
EXTT2=
EXTT3=
EXTT4=
EXTT5=
EXTT6=
EXTT7=
EXTT8=
EXTT9=
EXTT10=
PLAYORDER=
